<svg xmlns="http://www.w3.org/2000/svg" version="1.1" xmlns:xlink="http://www.w3.org/1999/xlink" xmlns:svgjs="http://svgjs.dev/svgjs" width="2000" height="2041" viewBox="0 0 2000 2041"><g transform="matrix(1,0,0,1,-3.184398320886885,-3.2919354838710433)"><svg viewBox="0 0 243 248" data-background-color="#ffffff" preserveAspectRatio="xMidYMid meet" height="2041" width="2000" xmlns="http://www.w3.org/2000/svg" xmlns:xlink="http://www.w3.org/1999/xlink"><g id="tight-bounds" transform="matrix(1,0,0,1,0.38690439598775583,0.4000000000000057)"><svg viewBox="0 0 242.2261912080245 247.2" height="247.2" width="242.2261912080245"><g><svg viewBox="0 0 395.52 403.64150347405115" height="247.2" width="242.2261912080245"><g transform="matrix(1,0,0,1,0,280.12727724226767)"><svg viewBox="0 0 395.52 123.51422623178348" height="123.51422623178348" width="395.52"><g id="textblocktransform"><svg viewBox="0 0 395.52 123.51422623178348" height="123.51422623178348" width="395.52" id="textblock"><g><svg viewBox="0 0 395.52 123.51422623178348" height="123.51422623178348" width="395.52"><g transform="matrix(1,0,0,1,0,0)"><svg width="395.52" viewBox="4.25 -35 144.09 45" height="123.51422623178348" data-palette-color="#f77e78"><path d="M25.4-25.5L25.4-25.5Q25.4-28.25 23.58-29.88 21.75-31.5 18.15-31.5L18.15-31.5 8.25-31.5 8.25-19.55 18.3-19.55Q21.7-19.55 23.55-21.15 25.4-22.75 25.4-25.5ZM18.9 0L4.25 0 4.25-35 18.5-35Q22.2-35 24.6-33.75 27-32.5 28.18-30.48 29.35-28.45 29.35-26L29.35-26Q29.35-23.6 28.48-21.98 27.6-20.35 26.13-19.4 24.65-18.45 22.9-18.1L22.9-18.1 22.9-17.75Q25-17.45 26.65-16.43 28.3-15.4 29.25-13.65 30.2-11.9 30.2-9.4L30.2-9.4Q30.2-6.8 28.9-4.65 27.6-2.5 25.08-1.25 22.55 0 18.9 0L18.9 0ZM8.25-16.05L8.25-3.5 18.6-3.5Q22.2-3.5 24.23-5.13 26.25-6.75 26.25-9.8L26.25-9.8Q26.25-12.85 24.13-14.45 22-16.05 18.45-16.05L18.45-16.05 8.25-16.05ZM55.95 0L52.5 0 52.2-4.5Q51.15-2.2 49.1-0.93 47.05 0.35 43.9 0.35L43.9 0.35Q41.2 0.35 39.3-0.5 37.4-1.35 36.37-2.93 35.35-4.5 35.35-6.65L35.35-6.65Q35.35-9.8 37.7-11.83 40.05-13.85 44.5-14.3L44.5-14.3 52.2-15.15 52.2-17.15Q52.2-19.25 50.65-20.53 49.1-21.8 46.45-21.8L46.45-21.8Q43.85-21.8 42.12-20.6 40.4-19.4 39.75-17.15L39.75-17.15 36.35-18.35Q37.35-21.65 40.02-23.5 42.7-25.35 46.55-25.35L46.55-25.35Q51-25.35 53.47-23.08 55.95-20.8 55.95-16.9L55.95-16.9 55.95 0ZM52.2-11.15L52.2-11.95 44.45-11.05Q41.95-10.75 40.65-9.68 39.35-8.6 39.35-6.85L39.35-6.85Q39.35-5.1 40.62-4.05 41.9-3 44.3-3L44.3-3Q47.05-3 48.8-4.1 50.55-5.2 51.37-7.08 52.2-8.95 52.2-11.15L52.2-11.15ZM82.2-20.35L82.45-25 85.9-25 85.9-4.6Q85.9 0 83.85 3.28 81.8 6.55 77.9 8.28 74 10 68.4 10L68.4 10 67.8 6.55Q74.85 6.45 78.5 3.63 82.15 0.8 82.15-4.6L82.15-4.6 82.15-5.15 82.55-5.05Q81.4-2.85 79.1-1.28 76.8 0.3 73.15 0.35L73.15 0.35Q69.7 0.35 67.12-1.23 64.55-2.8 63.12-5.7 61.7-8.6 61.7-12.5L61.7-12.5Q61.7-16.4 63.12-19.28 64.55-22.15 67.12-23.75 69.7-25.35 73.15-25.35L73.15-25.35Q75.4-25.35 77.15-24.68 78.9-24 80.15-22.88 81.4-21.75 82.2-20.35L82.2-20.35ZM65.75-12.5L65.75-12.5Q65.75-8.2 67.97-5.68 70.2-3.15 74-3.15L74-3.15Q76.3-3.15 78.15-4.25 80-5.35 81.07-7.45 82.15-9.55 82.15-12.5L82.15-12.5Q82.15-15.45 81.07-17.53 80-19.6 78.15-20.73 76.3-21.85 74-21.85L74-21.85Q70.25-21.85 68-19.3 65.75-16.75 65.75-12.5ZM112.49-20.35L112.74-25 116.19-25 116.19-4.6Q116.19 0 114.14 3.28 112.09 6.55 108.19 8.28 104.29 10 98.69 10L98.69 10 98.09 6.55Q105.14 6.45 108.79 3.63 112.44 0.8 112.44-4.6L112.44-4.6 112.44-5.15 112.84-5.05Q111.69-2.85 109.39-1.28 107.09 0.3 103.44 0.35L103.44 0.35Q99.99 0.35 97.42-1.23 94.84-2.8 93.42-5.7 91.99-8.6 91.99-12.5L91.99-12.5Q91.99-16.4 93.42-19.28 94.84-22.15 97.42-23.75 99.99-25.35 103.44-25.35L103.44-25.35Q105.69-25.35 107.44-24.68 109.19-24 110.44-22.88 111.69-21.75 112.49-20.35L112.49-20.35ZM96.04-12.5L96.04-12.5Q96.04-8.2 98.27-5.68 100.49-3.15 104.29-3.15L104.29-3.15Q106.59-3.15 108.44-4.25 110.29-5.35 111.37-7.45 112.44-9.55 112.44-12.5L112.44-12.5Q112.44-15.45 111.37-17.53 110.29-19.6 108.44-20.73 106.59-21.85 104.29-21.85L104.29-21.85Q100.54-21.85 98.29-19.3 96.04-16.75 96.04-12.5ZM124.24 0L124.24-35 128.24-35 128.24 0 124.24 0ZM134.19-25L137.94-25 137.94-32 141.69-32 141.69-25 148.34-25 148.34-21.5 141.69-21.5 141.69-8.05Q141.69-5.75 142.66-4.7 143.64-3.65 145.16-3.45 146.69-3.25 148.34-3.45L148.34-3.45 148.34-0.2Q146.39 0.25 144.51 0.05 142.64-0.15 141.16-1.07 139.69-2 138.81-3.7 137.94-5.4 137.94-8.05L137.94-8.05 137.94-21.5 134.19-21.5 134.19-25Z" opacity="1" transform="matrix(1,0,0,1,0,0)" fill="#f77e78" class="wordmark-text-0" data-fill-palette-color="primary" id="text-0"></path></svg></g></svg></g></svg></g></svg></g><g transform="matrix(1,0,0,1,86.85510585076067,0)"><svg viewBox="0 0 221.80978829847865 221.80978829847865" height="221.80978829847865" width="221.80978829847865"><g><svg></svg></g><g id="icon-0"><svg viewBox="0 0 221.80978829847865 221.80978829847865" height="221.80978829847865" width="221.80978829847865"><g><path d="M0 110.905c0-61.251 49.654-110.905 110.905-110.905 61.251 0 110.905 49.654 110.905 110.905 0 61.251-49.654 110.905-110.905 110.905-61.251 0-110.905-49.654-110.905-110.905zM110.905 210.671c55.099 0 99.766-44.667 99.766-99.766 0-55.099-44.667-99.766-99.766-99.766-55.099 0-99.766 44.667-99.766 99.766 0 55.099 44.667 99.766 99.766 99.766z" data-fill-palette-color="accent" fill="#ef4d44" stroke="transparent"></path><ellipse rx="109.79584520774694" ry="109.79584520774694" cx="110.90489414923933" cy="110.90489414923933" fill="#ef4d44" stroke="transparent" stroke-width="0" fill-opacity="1" data-fill-palette-color="accent"></ellipse></g><g transform="matrix(1,0,0,1,51.79201065591837,64.30142276279066)"><svg viewBox="0 0 118.22576698664191 93.20694277289732" height="93.20694277289732" width="118.22576698664191"><g><svg xmlns="http://www.w3.org/2000/svg" xmlns:xlink="http://www.w3.org/1999/xlink" version="1.1" x="0" y="0" viewBox="18.5 25.166 63 49.668000000000006" enable-background="new 0 0 100 100" xml:space="preserve" height="93.20694277289732" width="118.22576698664191" class="icon-dxe-0" data-fill-palette-color="quaternary" id="dxe-0"><g fill="#ffffff" data-fill-palette-color="quaternary"><path d="M77 31.834H61.167V29.666C61.167 27.185 59.148 25.166 56.667 25.166H43.333A4.505 4.505 0 0 0 38.833 29.666V31.834H23A4.505 4.505 0 0 0 18.5 36.334V70.334C18.5 72.815 20.519 74.834 23 74.834H77C79.481 74.834 81.5 72.815 81.5 70.334V36.334C81.5 33.853 79.481 31.834 77 31.834M41.833 29.666C41.833 28.839 42.506 28.166 43.333 28.166H56.667C57.494 28.166 58.167 28.839 58.167 29.666V31.834H41.833zM28.5 71.834H23C22.173 71.834 21.5 71.161 21.5 70.334V36.334C21.5 35.507 22.173 34.834 23 34.834H28.5zM69.222 71.834H31.5V34.834H69.222zM78.5 70.334C78.5 71.161 77.827 71.834 77 71.834H72.222V34.834H77C77.827 34.834 78.5 35.507 78.5 36.334z" fill="#ffffff" data-fill-palette-color="quaternary"></path><path d="M55.259 58.732C55.552 59.025 55.936 59.171 56.32 59.171S57.088 59.025 57.381 58.732L67.359 48.755A1.5 1.5 0 0 0 67.798 47.669L67.631 37.858A1.5 1.5 0 0 0 66.156 36.383L56.345 36.216C55.938 36.207 55.545 36.367 55.259 36.655L45.281 46.633A1.5 1.5 0 0 0 45.281 48.754zM56.93 39.228L64.655 39.359 64.787 47.084 56.32 55.551 48.464 47.695z" fill="#ffffff" data-fill-palette-color="quaternary"></path><path d="M61.989 43.426A1.499 1.499 0 0 0 63.049 40.866C62.489 40.306 61.489 40.306 60.93 40.866A1.499 1.499 0 0 0 61.989 43.426" fill="#ffffff" data-fill-palette-color="quaternary"></path></g></svg></g></svg></g></svg></g></svg></g><g></g></svg></g><defs></defs></svg><rect width="242.2261912080245" height="247.2" fill="none" stroke="none" visibility="hidden"></rect></g></svg></g></svg>