<svg xmlns="http://www.w3.org/2000/svg" version="1.1" xmlns:xlink="http://www.w3.org/1999/xlink" xmlns:svgjs="http://svgjs.dev/svgjs" width="128" height="128" viewBox="0 0 128 128"><g transform="matrix(0.8046875,0,0,0.8046875,11.011788865941135,21.781566072268667)"><svg viewBox="0 0 97 77" data-background-color="#ffffff" preserveAspectRatio="xMidYMid meet" height="101" width="128" xmlns="http://www.w3.org/2000/svg" xmlns:xlink="http://www.w3.org/1999/xlink"><g id="tight-bounds" transform="matrix(1,0,0,1,1.4657414957976016,1.5685406284156471)"><svg viewBox="0 0 95.481 75.27540171428572" height="75.27540171428572" width="95.481"><g><svg viewBox="0 0 95.481 75.27540171428572" height="75.27540171428572" width="95.481"><g><svg viewBox="0 0 95.481 75.27540171428572" height="75.27540171428572" width="95.481"><g id="textblocktransform"><svg viewBox="0 0 95.481 75.27540171428572" height="75.27540171428572" width="95.481" id="textblock"><g><svg viewBox="0 0 95.481 75.27540171428572" height="75.27540171428572" width="95.481"><g><svg viewBox="0 0 95.481 75.27540171428572" height="75.27540171428572" width="95.481"><g><svg xmlns="http://www.w3.org/2000/svg" xmlns:xlink="http://www.w3.org/1999/xlink" version="1.1" x="0" y="0" viewBox="18.5 25.166 63 49.668000000000006" enable-background="new 0 0 100 100" xml:space="preserve" height="75.27540171428572" width="95.481" class="icon-icon-0" data-fill-palette-color="accent" id="icon-0"><g fill="#ef4d44" data-fill-palette-color="accent"><path d="M77 31.834H61.167V29.666C61.167 27.185 59.148 25.166 56.667 25.166H43.333A4.505 4.505 0 0 0 38.833 29.666V31.834H23A4.505 4.505 0 0 0 18.5 36.334V70.334C18.5 72.815 20.519 74.834 23 74.834H77C79.481 74.834 81.5 72.815 81.5 70.334V36.334C81.5 33.853 79.481 31.834 77 31.834M41.833 29.666C41.833 28.839 42.506 28.166 43.333 28.166H56.667C57.494 28.166 58.167 28.839 58.167 29.666V31.834H41.833zM28.5 71.834H23C22.173 71.834 21.5 71.161 21.5 70.334V36.334C21.5 35.507 22.173 34.834 23 34.834H28.5zM69.222 71.834H31.5V34.834H69.222zM78.5 70.334C78.5 71.161 77.827 71.834 77 71.834H72.222V34.834H77C77.827 34.834 78.5 35.507 78.5 36.334z" fill="#ef4d44" data-fill-palette-color="accent"></path><path d="M55.259 58.732C55.552 59.025 55.936 59.171 56.32 59.171S57.088 59.025 57.381 58.732L67.359 48.755A1.5 1.5 0 0 0 67.798 47.669L67.631 37.858A1.5 1.5 0 0 0 66.156 36.383L56.345 36.216C55.938 36.207 55.545 36.367 55.259 36.655L45.281 46.633A1.5 1.5 0 0 0 45.281 48.754zM56.93 39.228L64.655 39.359 64.787 47.084 56.32 55.551 48.464 47.695z" fill="#ef4d44" data-fill-palette-color="accent"></path><path d="M61.989 43.426A1.499 1.499 0 0 0 63.049 40.866C62.489 40.306 61.489 40.306 60.93 40.866A1.499 1.499 0 0 0 61.989 43.426" fill="#ef4d44" data-fill-palette-color="accent"></path></g></svg></g></svg></g></svg></g></svg></g></svg></g><g></g></svg></g><defs></defs></svg><rect width="95.481" height="75.27540171428572" fill="none" stroke="none" visibility="hidden"></rect></g></svg></g></svg>